<svg xmlns="http://www.w3.org/2000/svg" width="152" height="152" viewBox="0 0 152 152">
    <g fill="#FFF" fill-rule="nonzero">
        <circle cx="56.488" cy="60.056" r="5.727"/>
        <circle cx="95.058" cy="60.056" r="5.727"/>
        <path d="M76 25.531c-27.83 0-50.469 22.64-50.469 50.469 0 27.83 22.64 50.469 50.469 50.469 27.83 0 50.469-22.64 50.469-50.469 0-27.83-22.64-50.469-50.469-50.469zm0 95c-24.555 0-44.531-19.976-44.531-44.531S51.445 31.469 76 31.469 120.531 51.445 120.531 76 100.555 120.531 76 120.531z"/>
        <path d="M89.318 85H62.664a2.969 2.969 0 0 0-2.968 2.969A16.295 16.295 0 0 0 88.48 98.43a16.301 16.301 0 0 0 3.806-10.462A2.969 2.969 0 0 0 89.317 85zM75.953 17.634c1.64 0 2.968-1.329 2.968-2.968v-11.6a2.969 2.969 0 1 0-5.937 0v11.6c0 1.64 1.329 2.968 2.969 2.968zM75.953 134.366a2.969 2.969 0 0 0-2.97 2.968v11.6a2.969 2.969 0 1 0 5.938 0v-11.6c0-1.64-1.329-2.968-2.969-2.968zM148.886 73.031h-11.6a2.969 2.969 0 0 0 0 5.938h11.6a2.969 2.969 0 1 0 0-5.938zM14.618 73.031H3.02a2.969 2.969 0 1 0 0 5.938h11.6a2.969 2.969 0 1 0 0-5.938zM121.422 117.266a2.97 2.97 0 0 0-4.2 4.197l8.202 8.203a2.97 2.97 0 0 0 4.198-4.2l-8.2-8.2zM30.483 34.734a2.969 2.969 0 0 0 4.198-4.197l-8.203-8.209a2.97 2.97 0 1 0-4.198 4.2l8.203 8.206zM30.483 117.266l-8.203 8.205a2.97 2.97 0 1 0 4.198 4.201l8.203-8.203a2.97 2.97 0 1 0-4.198-4.203zM125.424 22.328l-8.203 8.203a2.971 2.971 0 1 0 4.2 4.203l8.2-8.2a2.97 2.97 0 0 0-4.197-4.2v-.006z"/>
    </g>
</svg>
