<svg xmlns="http://www.w3.org/2000/svg" width="99" height="152" viewBox="0 0 99 152">
    <g fill="#FFF" fill-rule="nonzero">
        <path d="M9.806 100.516h4.903v4.903H9.806zM14.71 115.226v-4.903H9.806v4.903c0 14.869 12.1 26.968 26.968 26.968v-4.904c-12.165 0-22.064-9.9-22.064-22.064z"/>
        <path d="M80.903 66.194V49.032h-7.355V36.774C73.548 16.497 57.051 0 36.774 0S0 16.497 0 36.774v78.452C0 135.503 16.497 152 36.774 152s36.774-16.497 36.774-36.774v-12.258h7.355V85.806h17.162V66.194H80.903zM36.774 4.904c17.573 0 31.871 14.297 31.871 31.87v12.258H61.29v17.162H44.13v7.354H4.903V36.774c0-17.573 14.298-31.87 31.871-31.87zm31.871 110.322c0 17.573-14.298 31.87-31.87 31.87-17.574 0-31.872-14.297-31.872-31.87V78.452H44.13v7.354H61.29v17.162h7.355v12.258zm24.516-34.323H76v17.162h-9.806V80.903H49.032v-9.806h17.162V53.935H76v17.162h17.161v9.806z"/>
    </g>
</svg>
