<svg xmlns="http://www.w3.org/2000/svg" width="152" height="152" viewBox="0 0 152 152">
    <g fill="#FFF" fill-rule="nonzero">
        <circle cx="22.065" cy="85.806" r="2.452"/>
        <circle cx="95.613" cy="129.935" r="2.452"/>
        <circle cx="110.323" cy="129.935" r="2.452"/>
        <circle cx="125.032" cy="129.935" r="2.452"/>
        <path d="M139.742 88.258H80.903a2.45 2.45 0 0 0-2.451 2.452v29.419a2.45 2.45 0 0 0 2.451 2.452h58.839a2.45 2.45 0 0 0 2.452-2.452v-29.42a2.45 2.45 0 0 0-2.452-2.45zm-56.387 29.42v-12.259h5.84l4.226 8.451a2.447 2.447 0 0 0 2.366 1.348 2.45 2.45 0 0 0 2.152-1.67l3.32-9.955 2.123 3.185a2.444 2.444 0 0 0 2.037 1.093h19.613a2.45 2.45 0 1 0 0-4.903h-18.301l-4.175-6.264a2.46 2.46 0 0 0-2.366-1.071 2.453 2.453 0 0 0-2 1.654l-3.03 9.096-2.256-4.514a2.456 2.456 0 0 0-2.194-1.353h-7.355v-7.355h53.935v9.807h-2.451a2.45 2.45 0 1 0 0 4.903h2.451v9.806H83.355z"/>
        <path d="M144.645 78.452H76.45l-.53-1.856a17.092 17.092 0 0 0-13.133-12.111l-13.754-2.753v-.442c0-.063-.032-.117-.037-.179a19.65 19.65 0 0 0 9.246-12.265c4.523-.873 7.953-4.847 7.953-9.62v-16.86A15.374 15.374 0 0 0 55.44 7.686 18.926 18.926 0 0 0 40.194 0C24.788 0 12.258 12.53 12.258 27.936v11.29c0 4.773 3.43 8.747 7.953 9.62a19.658 19.658 0 0 0 9.245 12.265c-.005.062-.037.116-.037.18v.44l-13.748 2.751A17.092 17.092 0 0 0 2.535 76.593l-2.44 8.54a2.453 2.453 0 0 0 2.357 3.125h10.154a9.794 9.794 0 0 0 7.007 7.007v40.8c0 8.786 7.149 15.935 15.935 15.935 8.787 0 15.936-7.149 15.936-15.935v-14.71c0-6.083 4.95-11.032 11.032-11.032h6.13v29.419a2.45 2.45 0 0 0 2.45 2.452h5.44l1.99 7.948A2.45 2.45 0 0 0 80.902 152h14.71a2.45 2.45 0 0 0 2.378-1.858l1.988-7.948h20.687l1.988 7.948a2.45 2.45 0 0 0 2.378 1.858h14.71a2.45 2.45 0 0 0 2.378-1.858l1.988-7.948h5.44a2.45 2.45 0 0 0 2.452-2.452V85.806c0-4.055-3.3-7.354-7.355-7.354zM58.84 43.447v-8.443c1.458.85 2.451 2.415 2.451 4.222 0 1.807-.993 3.37-2.451 4.221zM40.194 4.903c4.712 0 9.088 2.342 11.702 6.264.338.508.853.87 1.444 1.02a10.475 10.475 0 0 1 7.95 10.18v8.415c-1.449-.843-3.108-1.363-4.903-1.363a27.136 27.136 0 0 1-16.18-5.393l-1.962-1.471a2.452 2.452 0 0 0-3.204.228l-2.155 2.155a15.205 15.205 0 0 1-10.821 4.481c-1.795 0-3.455.52-4.904 1.363v-2.848c0-12.7 10.331-23.03 23.033-23.03zM17.161 39.226c0-1.807.993-3.371 2.452-4.222v8.443c-1.459-.85-2.452-2.414-2.452-4.221zm7.355 4.903v-9.954a20.054 20.054 0 0 0 11.837-5.77l.652-.653.26.196c4.827 3.621 10.669 5.808 16.67 6.279v9.902c0 8.112-6.597 14.71-14.71 14.71-8.112 0-14.709-6.598-14.709-14.71zM7.25 77.942a12.21 12.21 0 0 1 9.383-8.652l15.722-3.145a2.448 2.448 0 0 0 1.969-2.403v-.645c1.571.407 3.206.645 4.903.645 1.696 0 3.332-.238 4.903-.645v.645c0 1.17.824 2.175 1.971 2.403l15.722 3.145c4.521.905 8.115 4.22 9.383 8.652l.539 1.887a7.359 7.359 0 0 0-2.645 3.523H31.87c-.115 0-.216.052-.326.067C30.47 79.167 26.647 76 22.065 76c-4.556 0-8.363 3.136-9.459 7.355H5.702l1.547-5.413zm9.912 7.864c0-2.704 2.2-4.903 4.904-4.903 2.704 0 4.903 2.2 4.903 4.903 0 2.705-2.2 4.904-4.903 4.904a4.908 4.908 0 0 1-4.904-4.904zm45.355 19.613c-8.786 0-15.935 7.15-15.935 15.936v14.71c0 6.082-4.95 11.032-11.033 11.032-6.082 0-11.032-4.95-11.032-11.032v-40.8a9.795 9.795 0 0 0 7.029-7.073c.11.015.21.066.326.066h36.774v17.161h-6.129zm31.182 41.678h-10.88l-1.226-4.903h13.332l-1.226 4.903zm44.13 0h-10.881l-1.226-4.903h13.332l-1.226 4.903zm9.269-9.807H73.548V85.806c0-1.353 1.101-2.451 2.452-2.451h68.645a2.454 2.454 0 0 1 2.452 2.451v51.484z"/>
    </g>
</svg>
